<svg xmlns="http://www.w3.org/2000/svg" xmlns:xlink="http://www.w3.org/1999/xlink" width="1200" zoomAndPan="magnify" viewBox="0 0 900 472.499986" height="630" preserveAspectRatio="xMidYMid meet" version="1.0"><defs><clipPath id="528553beeb"><path d="M 572.441406 67 L 627.871094 67 L 627.871094 141.398438 L 572.441406 141.398438 Z M 572.441406 67 " clip-rule="nonzero"/></clipPath><clipPath id="c9dbd92ab0"><path d="M 272.242188 333 L 434.847656 333 L 434.847656 471.972656 L 272.242188 471.972656 Z M 272.242188 333 " clip-rule="nonzero"/></clipPath></defs><path fill="#FFFFFF" d="M 313.621094 368.746094 C 307.453125 368.746094 302.441406 373.761719 302.441406 379.925781 C 302.441406 386.085938 307.453125 391.101562 313.621094 391.101562 C 319.785156 391.101562 324.804688 386.085938 324.804688 379.925781 C 324.804688 373.761719 319.785156 368.746094 313.621094 368.746094 " fill-opacity="1" fill-rule="nonzero"/><path fill="#FFFFFF" d="M 579.652344 285.582031 L 579.652344 299.132812 C 579.652344 312.253906 569.015625 322.886719 555.894531 322.886719 L 411.488281 322.886719 C 413.9375 301.359375 408.707031 280.929688 403.003906 266.074219 L 559.039062 266.074219 C 559.09375 268.644531 559.695312 271.277344 560.898438 273.75 L 561.609375 275.230469 C 565.035156 282.242188 572.300781 286.125 579.652344 285.582031 " fill-opacity="1" fill-rule="nonzero"/><path fill="#FFFFFF" d="M 537.667969 199.90625 L 537.667969 226.589844 L 510.972656 226.589844 L 510.972656 217.003906 L 528.078125 217.003906 L 528.078125 199.90625 L 537.667969 199.90625 " fill-opacity="1" fill-rule="nonzero"/><path fill="#FFFFFF" d="M 537.667969 113.414062 L 537.667969 140.117188 L 528.078125 140.117188 L 528.078125 123.011719 L 510.972656 123.011719 L 510.972656 113.414062 L 537.667969 113.414062 " fill-opacity="1" fill-rule="nonzero"/><path fill="#FFFFFF" d="M 509.394531 155.109375 L 509.394531 141.679688 L 495.960938 141.679688 L 495.960938 155.109375 Z M 518.984375 132.09375 L 518.984375 164.710938 L 486.359375 164.710938 L 486.359375 132.09375 L 518.984375 132.09375 " fill-opacity="1" fill-rule="nonzero"/><path fill="#FFFFFF" d="M 518.617188 197.304688 L 518.617188 208.175781 L 507.746094 208.175781 L 507.746094 197.304688 L 496.871094 197.304688 L 496.871094 186.433594 L 485.996094 186.433594 L 485.996094 175.5625 L 507.746094 175.5625 L 507.746094 186.433594 L 518.617188 186.433594 L 518.617188 197.304688 " fill-opacity="1" fill-rule="nonzero"/><path fill="#FFFFFF" d="M 496.871094 197.304688 L 496.871094 208.175781 L 485.996094 208.175781 L 485.996094 197.304688 L 496.871094 197.304688 " fill-opacity="1" fill-rule="nonzero"/><path fill="#FFFFFF" d="M 466.164062 198.328125 L 466.164062 184.898438 L 452.730469 184.898438 L 452.730469 198.328125 Z M 475.769531 175.296875 L 475.769531 207.910156 L 443.144531 207.910156 L 443.144531 175.296875 L 475.769531 175.296875 " fill-opacity="1" fill-rule="nonzero"/><path fill="#FFFFFF" d="M 466.164062 155.109375 L 466.164062 141.679688 L 452.730469 141.679688 L 452.730469 155.109375 Z M 475.769531 132.09375 L 475.769531 164.710938 L 443.144531 164.710938 L 443.144531 132.09375 L 475.769531 132.09375 " fill-opacity="1" fill-rule="nonzero"/><path fill="#FFFFFF" d="M 451.167969 217.003906 L 451.167969 226.589844 L 424.457031 226.589844 L 424.457031 199.90625 L 434.058594 199.90625 L 434.058594 217.003906 L 451.167969 217.003906 " fill-opacity="1" fill-rule="nonzero"/><path fill="#FFFFFF" d="M 451.167969 113.414062 L 451.167969 123.011719 L 434.058594 123.011719 L 434.058594 140.117188 L 424.457031 140.117188 L 424.457031 113.414062 L 451.167969 113.414062 " fill-opacity="1" fill-rule="nonzero"/><g clip-path="url(#528553beeb)"><path fill="#FFFFFF" d="M 579.660156 141.027344 C 577.519531 141.027344 575.402344 140.046875 574.03125 138.1875 C 571.738281 135.085938 572.394531 130.707031 575.503906 128.421875 L 608.667969 103.9375 C 611.542969 101.816406 613.363281 98.785156 613.792969 95.398438 C 614.207031 92.101562 613.253906 88.824219 611.101562 86.175781 C 606.40625 80.386719 597.617188 79.34375 591.511719 83.84375 L 583.804688 89.539062 C 580.707031 91.832031 576.328125 91.171875 574.035156 88.074219 C 571.742188 84.96875 572.394531 80.597656 575.5 78.300781 L 583.210938 72.601562 C 595.25 63.734375 612.625 65.875 621.949219 77.363281 C 626.53125 83.003906 628.5625 90.035156 627.65625 97.160156 C 626.738281 104.367188 622.945312 110.773438 616.96875 115.179688 L 583.804688 139.660156 C 582.554688 140.578125 581.101562 141.027344 579.660156 141.027344 " fill-opacity="1" fill-rule="nonzero"/></g><path fill="#FFFFFF" d="M 555.894531 329.871094 L 411.488281 329.871094 C 407.628906 329.871094 404.5 326.746094 404.5 322.886719 C 404.5 319.027344 407.628906 315.902344 411.488281 315.902344 L 555.894531 315.902344 C 565.140625 315.902344 572.664062 308.378906 572.664062 299.132812 L 572.664062 285.582031 C 572.664062 281.726562 575.792969 278.59375 579.652344 278.59375 C 583.511719 278.59375 586.644531 281.726562 586.644531 285.582031 L 586.644531 299.132812 C 586.644531 316.085938 572.851562 329.871094 555.894531 329.871094 " fill-opacity="1" fill-rule="nonzero"/><path fill="#FFFFFF" d="M 579.652344 166.1875 C 575.792969 166.1875 572.664062 163.058594 572.664062 159.199219 L 572.664062 30.742188 C 572.664062 21.496094 565.140625 13.972656 555.894531 13.972656 L 408.203125 13.972656 C 398.957031 13.972656 391.433594 21.496094 391.433594 30.742188 L 391.433594 135.964844 C 391.433594 139.824219 388.304688 142.953125 384.445312 142.953125 C 380.582031 142.953125 377.457031 139.824219 377.457031 135.964844 L 377.457031 30.742188 C 377.457031 13.792969 391.25 0.00390625 408.203125 0.00390625 L 555.894531 0.00390625 C 572.851562 0.00390625 586.644531 13.792969 586.644531 30.742188 L 586.644531 159.199219 C 586.644531 163.058594 583.511719 166.1875 579.652344 166.1875 " fill-opacity="1" fill-rule="nonzero"/><path fill="#FFFFFF" d="M 418.398438 425.011719 C 417.039062 425.011719 415.65625 424.617188 414.445312 423.78125 C 411.265625 421.59375 410.460938 417.242188 412.652344 414.066406 L 425.117188 395.957031 C 425.9375 394.761719 427.113281 393.851562 428.476562 393.359375 C 429.160156 393.105469 497.210938 367.757812 519.335938 322.265625 C 521.023438 318.792969 525.203125 317.347656 528.675781 319.035156 C 532.144531 320.722656 533.59375 324.902344 531.90625 328.375 C 509.359375 374.734375 447.871094 400.777344 435.398438 405.671875 L 424.164062 421.988281 C 422.8125 423.953125 420.625 425.011719 418.398438 425.011719 " fill-opacity="1" fill-rule="nonzero"/><path fill="#FFFFFF" d="M 320.050781 351.921875 C 318.570312 351.921875 317.074219 351.453125 315.800781 350.480469 C 312.738281 348.132812 312.160156 343.75 314.503906 340.6875 L 324.375 327.8125 C 324.609375 311.96875 326.125 241.214844 334.867188 224.269531 C 344.066406 206.386719 355.617188 177.027344 358.382812 138.777344 C 358.742188 133.664062 361.667969 129.0625 366.199219 126.460938 C 370.894531 123.777344 376.589844 123.605469 381.4375 126.003906 C 383.945312 127.238281 386.351562 128.699219 388.582031 130.335938 C 396.734375 136.285156 406.695312 147.753906 407.777344 168.5625 C 407.792969 168.851562 407.789062 169.132812 407.769531 169.417969 C 405.820312 197.191406 400.421875 231.585938 398.863281 241.179688 C 401.066406 244.933594 405.417969 252.875 409.527344 263.570312 C 415.066406 278 421.109375 300.136719 418.433594 323.675781 C 417.84375 328.878906 416.839844 334.058594 415.433594 339.054688 C 414.390625 342.773438 410.539062 344.9375 406.816406 343.894531 C 403.105469 342.851562 400.9375 338.996094 401.980469 335.28125 C 403.179688 331.003906 404.039062 326.574219 404.542969 322.105469 C 406.902344 301.367188 401.460938 281.550781 396.480469 268.578125 C 391.300781 255.105469 385.746094 246.5 385.6875 246.414062 C 384.730469 244.945312 384.359375 243.167969 384.652344 241.4375 C 384.722656 241.03125 391.535156 200.570312 393.796875 168.871094 C 393.078125 156.78125 388.546875 147.609375 380.324219 141.609375 C 378.734375 140.441406 377.03125 139.410156 375.246094 138.53125 C 374.28125 138.050781 373.457031 138.410156 373.148438 138.585938 C 372.796875 138.785156 372.367188 139.160156 372.324219 139.769531 C 369.386719 180.386719 357.089844 211.617188 347.289062 230.667969 C 341.425781 242.035156 338.675781 297.8125 338.324219 330.300781 C 338.304688 331.8125 337.800781 333.277344 336.878906 334.476562 L 325.601562 349.1875 C 324.226562 350.980469 322.148438 351.921875 320.050781 351.921875 " fill-opacity="1" fill-rule="nonzero"/><path fill="#FFFFFF" d="M 579.652344 244.027344 L 579.667969 244.027344 Z M 582.308594 250.492188 L 572.492188 255.269531 C 568.460938 257.242188 565.917969 261.417969 566.023438 265.910156 C 566.058594 267.558594 566.460938 269.210938 567.183594 270.695312 L 567.90625 272.199219 C 569.976562 276.433594 574.371094 278.96875 579.136719 278.613281 C 580.578125 278.507812 581.976562 278.125 583.296875 277.480469 L 592.011719 273.238281 C 596.855469 270.878906 598.878906 265.015625 596.511719 260.160156 L 593.648438 254.28125 C 591.667969 250.21875 586.707031 248.457031 582.597656 250.363281 C 582.554688 250.386719 582.507812 250.402344 582.464844 250.421875 C 582.410156 250.449219 582.359375 250.472656 582.308594 250.492188 Z M 578.238281 292.621094 C 568.5 292.621094 559.652344 287.148438 555.332031 278.292969 L 554.597656 276.777344 C 553.015625 273.519531 552.128906 269.863281 552.050781 266.226562 C 551.8125 256.3125 557.433594 247.074219 566.367188 242.710938 L 576.316406 237.871094 C 576.4375 237.8125 576.558594 237.757812 576.683594 237.703125 L 576.714844 237.691406 C 587.675781 232.605469 600.914062 237.296875 606.214844 248.160156 L 609.078125 254.046875 C 614.8125 265.828125 609.902344 280.070312 598.125 285.796875 L 589.4375 290.03125 C 586.523438 291.460938 583.394531 292.3125 580.167969 292.550781 C 579.519531 292.59375 578.878906 292.621094 578.238281 292.621094 " fill-opacity="1" fill-rule="nonzero"/><path fill="#FFFFFF" d="M 579.652344 201.605469 L 579.667969 201.605469 Z M 582.363281 208.046875 L 572.5 212.859375 C 566.777344 215.652344 564.394531 222.570312 567.179688 228.277344 L 567.894531 229.757812 C 569.980469 234.023438 574.386719 236.550781 579.121094 236.195312 C 580.585938 236.09375 581.976562 235.714844 583.316406 235.066406 L 592.011719 230.832031 C 594.359375 229.6875 596.117188 227.703125 596.96875 225.230469 C 597.820312 222.761719 597.660156 220.109375 596.515625 217.761719 L 593.648438 211.875 C 591.664062 207.808594 586.699219 206.046875 582.589844 207.949219 C 582.527344 207.976562 582.472656 208 582.414062 208.023438 Z M 578.167969 250.203125 C 568.496094 250.203125 559.65625 244.734375 555.332031 235.875 L 554.609375 234.390625 C 548.449219 221.769531 553.726562 206.472656 566.371094 200.304688 L 576.308594 195.457031 C 576.421875 195.402344 576.535156 195.351562 576.644531 195.300781 L 576.722656 195.269531 C 587.683594 190.199219 600.917969 194.902344 606.214844 205.753906 L 609.078125 211.640625 C 611.859375 217.339844 612.25 223.777344 610.183594 229.78125 C 608.117188 235.78125 603.835938 240.617188 598.125 243.390625 L 589.4375 247.628906 C 586.46875 249.074219 583.332031 249.914062 580.125 250.128906 C 579.46875 250.183594 578.820312 250.203125 578.167969 250.203125 " fill-opacity="1" fill-rule="nonzero"/><path fill="#FFFFFF" d="M 579.652344 159.199219 L 579.667969 159.199219 Z M 582.359375 165.644531 L 572.5 170.453125 C 566.777344 173.246094 564.394531 180.164062 567.179688 185.871094 L 567.894531 187.351562 C 569.980469 191.621094 574.390625 194.152344 579.121094 193.792969 C 580.585938 193.691406 581.976562 193.308594 583.3125 192.660156 L 592.011719 188.425781 C 594.359375 187.285156 596.117188 185.296875 596.96875 182.824219 C 597.820312 180.355469 597.660156 177.703125 596.515625 175.359375 L 593.648438 169.46875 C 591.664062 165.402344 586.703125 163.640625 582.585938 165.542969 C 582.535156 165.566406 582.488281 165.589844 582.4375 165.609375 Z M 578.171875 207.796875 C 568.496094 207.796875 559.65625 202.328125 555.332031 193.46875 L 554.609375 191.988281 C 548.449219 179.363281 553.726562 164.066406 566.371094 157.898438 L 576.308594 153.050781 C 576.421875 152.992188 576.535156 152.945312 576.644531 152.894531 L 576.722656 152.863281 C 587.691406 147.792969 600.917969 152.496094 606.214844 163.347656 L 609.078125 169.238281 C 611.859375 174.933594 612.25 181.375 610.183594 187.375 C 608.117188 193.378906 603.835938 198.210938 598.125 200.988281 L 589.4375 205.222656 C 586.476562 206.664062 583.339844 207.507812 580.125 207.726562 C 579.472656 207.777344 578.824219 207.796875 578.171875 207.796875 " fill-opacity="1" fill-rule="nonzero"/><g clip-path="url(#c9dbd92ab0)"><path fill="#FFFFFF" d="M 406.089844 471.972656 C 404.636719 471.972656 403.175781 471.523438 401.925781 470.589844 C 398.828125 468.292969 398.183594 463.914062 400.484375 460.816406 L 419.023438 435.90625 C 421.320312 432.8125 420.667969 428.421875 417.574219 426.113281 L 414.230469 423.628906 L 313.140625 348.496094 C 310.058594 346.210938 305.667969 346.855469 303.367188 349.949219 L 284.835938 374.855469 C 282.535156 377.953125 278.15625 378.59375 275.058594 376.292969 C 271.964844 373.992188 271.320312 369.613281 273.625 366.519531 L 292.152344 341.605469 C 299.058594 332.339844 312.210938 330.402344 321.480469 337.285156 L 324.230469 339.332031 L 425.921875 414.910156 C 435.191406 421.8125 437.125 434.96875 430.238281 444.238281 L 411.699219 469.152344 C 410.332031 470.996094 408.222656 471.972656 406.089844 471.972656 " fill-opacity="1" fill-rule="nonzero"/></g><path fill="#FFFFFF" d="M 579.652344 72.3125 L 384.445312 72.3125 C 384.058594 72.3125 383.746094 71.996094 383.746094 71.609375 C 383.746094 71.226562 384.058594 70.914062 384.445312 70.914062 L 579.652344 70.914062 C 580.039062 70.914062 580.351562 71.226562 580.351562 71.609375 C 580.351562 71.996094 580.039062 72.3125 579.652344 72.3125 " fill-opacity="1" fill-rule="nonzero"/><path fill="#FFFFFF" d="M 493.921875 46.808594 L 470.160156 46.808594 C 466.6875 46.808594 463.871094 43.996094 463.871094 40.523438 C 463.871094 37.046875 466.6875 34.234375 470.160156 34.234375 L 493.921875 34.234375 C 497.394531 34.234375 500.210938 37.046875 500.210938 40.523438 C 500.210938 43.996094 497.394531 46.808594 493.921875 46.808594 Z M 555.894531 6.988281 L 408.203125 6.988281 C 395.082031 6.988281 384.445312 17.621094 384.445312 30.742188 L 384.445312 71.609375 L 579.652344 71.609375 L 579.652344 30.742188 C 579.652344 17.621094 569.015625 6.988281 555.894531 6.988281 " fill-opacity="1" fill-rule="nonzero"/></svg>