<svg xmlns="http://www.w3.org/2000/svg" xmlns:xlink="http://www.w3.org/1999/xlink" width="1200" zoomAndPan="magnify" viewBox="0 0 900 472.499986" height="630" preserveAspectRatio="xMidYMid meet" version="1.0"><defs><clipPath id="3bea792bc1"><path d="M 382 176 L 631 176 L 631 420 L 382 420 Z M 382 176 " clip-rule="nonzero"/></clipPath><clipPath id="ea9288980a"><path d="M 208.433594 235.257812 L 528.164062 18.910156 L 675.277344 236.324219 L 355.550781 452.671875 Z M 208.433594 235.257812 " clip-rule="nonzero"/></clipPath><clipPath id="76f46972e4"><path d="M 208.433594 235.257812 L 528.164062 18.910156 L 675.277344 236.324219 L 355.550781 452.671875 Z M 208.433594 235.257812 " clip-rule="nonzero"/></clipPath><clipPath id="36f1cd878c"><path d="M 382 177 L 629 177 L 629 414 L 382 414 Z M 382 177 " clip-rule="nonzero"/></clipPath><clipPath id="dde65149bc"><path d="M 208.433594 235.257812 L 528.164062 18.910156 L 675.277344 236.324219 L 355.550781 452.671875 Z M 208.433594 235.257812 " clip-rule="nonzero"/></clipPath><clipPath id="54d4c2fe4c"><path d="M 208.433594 235.257812 L 528.164062 18.910156 L 675.277344 236.324219 L 355.550781 452.671875 Z M 208.433594 235.257812 " clip-rule="nonzero"/></clipPath><clipPath id="193fbdb9d9"><path d="M 417 207 L 596 207 L 596 383 L 417 383 Z M 417 207 " clip-rule="nonzero"/></clipPath><clipPath id="87cd0c89fc"><path d="M 208.433594 235.257812 L 528.164062 18.910156 L 675.277344 236.324219 L 355.550781 452.671875 Z M 208.433594 235.257812 " clip-rule="nonzero"/></clipPath><clipPath id="793057b8a9"><path d="M 208.433594 235.257812 L 528.164062 18.910156 L 675.277344 236.324219 L 355.550781 452.671875 Z M 208.433594 235.257812 " clip-rule="nonzero"/></clipPath><clipPath id="c0e6898c50"><path d="M 398 205 L 404 205 L 404 208 L 398 208 Z M 398 205 " clip-rule="nonzero"/></clipPath><clipPath id="189a2537a1"><path d="M 208.433594 235.257812 L 528.164062 18.910156 L 675.277344 236.324219 L 355.550781 452.671875 Z M 208.433594 235.257812 " clip-rule="nonzero"/></clipPath><clipPath id="45efa02ce5"><path d="M 208.433594 235.257812 L 528.164062 18.910156 L 675.277344 236.324219 L 355.550781 452.671875 Z M 208.433594 235.257812 " clip-rule="nonzero"/></clipPath><clipPath id="39610f2910"><path d="M 307 174 L 513 174 L 513 290 L 307 290 Z M 307 174 " clip-rule="nonzero"/></clipPath><clipPath id="40fe6d25e5"><path d="M 208.433594 235.257812 L 528.164062 18.910156 L 675.277344 236.324219 L 355.550781 452.671875 Z M 208.433594 235.257812 " clip-rule="nonzero"/></clipPath><clipPath id="bfb7e65101"><path d="M 208.433594 235.257812 L 528.164062 18.910156 L 675.277344 236.324219 L 355.550781 452.671875 Z M 208.433594 235.257812 " clip-rule="nonzero"/></clipPath><clipPath id="ed83e7ed61"><path d="M 239 149 L 532 149 L 532 313 L 239 313 Z M 239 149 " clip-rule="nonzero"/></clipPath><clipPath id="6c0ff6b573"><path d="M 208.433594 235.257812 L 528.164062 18.910156 L 675.277344 236.324219 L 355.550781 452.671875 Z M 208.433594 235.257812 " clip-rule="nonzero"/></clipPath><clipPath id="2457fd5a88"><path d="M 208.433594 235.257812 L 528.164062 18.910156 L 675.277344 236.324219 L 355.550781 452.671875 Z M 208.433594 235.257812 " clip-rule="nonzero"/></clipPath><clipPath id="8d5b234721"><path d="M 610.8125 257.746094 L 692.433594 257.746094 L 692.433594 363.632812 L 610.8125 363.632812 Z M 610.8125 257.746094 " clip-rule="nonzero"/></clipPath></defs><g clip-path="url(#3bea792bc1)"><g clip-path="url(#ea9288980a)"><g clip-path="url(#76f46972e4)"><path fill="#FFFFFF" d="M 382.847656 413.824219 C 382.847656 413.824219 391.289062 424.78125 405.691406 415.039062 C 420.089844 405.292969 495.359375 357.449219 505.277344 349.296875 C 515.199219 341.144531 622.414062 202.117188 625.085938 198.457031 C 627.753906 194.796875 634.011719 183.359375 628.625 176.921875 L 526.585938 257.902344 Z M 382.847656 413.824219 " fill-opacity="1" fill-rule="nonzero"/></g></g></g><g clip-path="url(#36f1cd878c)"><g clip-path="url(#dde65149bc)"><g clip-path="url(#54d4c2fe4c)"><path fill="#FFFFFF" d="M 382.847656 413.824219 L 519.492188 250.765625 L 628.34375 177.113281 L 493.929688 341.953125 Z M 382.847656 413.824219 " fill-opacity="1" fill-rule="nonzero"/></g></g></g><g clip-path="url(#193fbdb9d9)"><g clip-path="url(#87cd0c89fc)"><g clip-path="url(#793057b8a9)"><path fill="#ffffff" d="M 523.5 256.078125 L 417.148438 383 L 489.289062 334.183594 L 595.359375 207.457031 Z M 523.5 256.078125 " fill-opacity="1" fill-rule="nonzero"/></g></g></g><g clip-path="url(#c0e6898c50)"><g clip-path="url(#189a2537a1)"><g clip-path="url(#45efa02ce5)"><path fill="#FFFFFF" d="M 403.777344 205.984375 L 402.082031 207.132812 C 400.804688 206.761719 399.382812 206.488281 398.011719 205.976562 Z M 403.777344 205.984375 " fill-opacity="1" fill-rule="nonzero"/></g></g></g><g clip-path="url(#39610f2910)"><g clip-path="url(#40fe6d25e5)"><g clip-path="url(#bfb7e65101)"><path fill="#FFFFFF" d="M 472.261719 195.867188 C 483.59375 200.753906 492.332031 206.367188 492.9375 211.515625 C 494.445312 224.699219 471.367188 217.054688 459.808594 213.351562 C 441.277344 209.792969 422.597656 207.335938 403.777344 205.984375 L 397.488281 205.507812 C 398.15625 206.496094 400.28125 206.292969 401.5625 206.664062 C 419.851562 211.597656 437.328125 218.566406 453.996094 227.578125 C 457.433594 232.660156 455.746094 248.414062 428.761719 236.214844 C 411.605469 229.832031 393.957031 225.445312 375.8125 223.054688 C 374.796875 225.3125 373.972656 227.636719 373.34375 230.027344 C 372.714844 232.417969 372.285156 234.847656 372.0625 237.3125 C 371.835938 239.773438 371.820312 242.238281 372.003906 244.707031 C 372.191406 247.171875 372.582031 249.605469 373.175781 252.007812 C 376.933594 265.179688 382.535156 277.511719 389.976562 289.007812 L 313.828125 263.765625 C 313.828125 263.765625 304.960938 225.71875 308.148438 221.914062 C 311.335938 218.109375 324.773438 205.726562 335.152344 195.820312 C 341.964844 189.152344 347.742188 184.007812 347.742188 184.007812 L 400.617188 179.71875 L 398.925781 180.867188 C 410.128906 177.480469 421.570312 175.429688 433.253906 174.71875 C 460.414062 178.5625 486.714844 185.597656 512.164062 195.832031 C 510.367188 195.605469 494.523438 195.007812 472.261719 195.867188 Z M 472.261719 195.867188 " fill-opacity="1" fill-rule="nonzero"/></g></g></g><g clip-path="url(#ed83e7ed61)"><g clip-path="url(#6c0ff6b573)"><g clip-path="url(#2457fd5a88)"><path fill="#FFFFFF" d="M 384.203125 198.648438 C 409.355469 192.121094 434.925781 188.539062 460.90625 187.910156 C 487.507812 191.933594 514.882812 198.933594 518.050781 199.050781 C 521.21875 199.171875 540.875 190.808594 526.875 176.203125 C 512.875 161.597656 458.414062 148.636719 443.292969 149.402344 C 428.167969 150.171875 410.417969 140.363281 318.59375 186.855469 C 304.371094 195.039062 257.1875 202.265625 245.1875 210.386719 C 233.1875 218.507812 243.460938 268.363281 243.492188 273.277344 C 243.527344 278.195312 309.730469 279.914062 326.773438 283.203125 C 351.773438 291.007812 376.140625 300.453125 399.871094 311.539062 C 409.164062 315.539062 434.550781 294.65625 406.589844 277.972656 C 378.628906 261.285156 349.445312 252.835938 349.140625 242.953125 C 349.390625 240.476562 349.808594 238.027344 350.40625 235.609375 C 351.003906 233.191406 351.769531 230.828125 352.703125 228.519531 C 353.636719 226.207031 354.730469 223.976562 355.980469 221.824219 C 357.234375 219.671875 358.632812 217.617188 360.179688 215.664062 C 361.726562 213.710938 363.402344 211.878906 365.207031 210.164062 C 367.015625 208.449219 368.9375 206.875 370.96875 205.433594 C 373 203.992188 375.125 202.707031 377.34375 201.570312 C 379.558594 200.433594 381.847656 199.460938 384.203125 198.648438 Z M 384.203125 198.648438 " fill-opacity="1" fill-rule="nonzero"/></g></g></g><g clip-path="url(#8d5b234721)"><path fill="#FFFFFF" d="M 651.605469 363.523438 L 610.8125 310.386719 L 634.242188 310.394531 L 634.242188 257.855469 L 668.996094 257.855469 L 668.996094 310.394531 L 692.425781 310.402344 L 651.605469 363.519531 Z M 651.605469 363.523438 " fill-opacity="1" fill-rule="nonzero"/></g></svg>