<svg xmlns="http://www.w3.org/2000/svg" xmlns:xlink="http://www.w3.org/1999/xlink" width="1200" zoomAndPan="magnify" viewBox="0 0 900 472.499986" height="630" preserveAspectRatio="xMidYMid meet" version="1.0"><defs><clipPath id="9b310d63d7"><path d="M 666 433 L 682 433 L 682 456.265625 L 666 456.265625 Z M 666 433 " clip-rule="nonzero"/></clipPath></defs><path fill="#FFFFFF" d="M 303.488281 72.050781 C 294.910156 70.722656 284.945312 76.632812 276.628906 87.6875 C 264.851562 103.378906 260.316406 124.628906 266.078125 137.117188 C 269.25 143.988281 273.914062 148.675781 278.320312 151.925781 L 325.773438 88.664062 C 322.882812 81.847656 316.800781 74.050781 303.488281 72.050781 Z M 219.613281 230.195312 L 264.925781 169.785156 C 257.984375 164.664062 250.714844 157.289062 245.742188 146.507812 C 234.945312 123.113281 244.898438 92.640625 258.695312 74.234375 C 272.222656 56.21875 289.71875 47.28125 306.816406 49.886719 C 326.984375 52.917969 338.421875 64.398438 344.59375 76.328125 L 456.917969 142.121094 C 460.183594 144.042969 461.515625 148.121094 459.964844 151.59375 L 422.558594 236.242188 L 510.375 229.789062 C 511.707031 229.683594 512.910156 230.027344 514.152344 230.246094 L 549.796875 189.417969 C 551.941406 186.988281 555.382812 186.207031 558.359375 187.453125 C 561.335938 188.722656 563.160156 191.765625 562.867188 194.992188 L 553.808594 296.566406 C 553.53125 299.714844 551.300781 302.34375 548.246094 303.128906 C 547.621094 303.308594 546.992188 303.378906 546.367188 303.378906 C 543.933594 303.378906 541.609375 302.183594 540.195312 300.113281 L 512.582031 259.578125 C 512.574219 259.578125 512.570312 259.582031 512.5625 259.582031 L 408.882812 267.199219 L 382.960938 325.863281 C 382.097656 327.800781 380.449219 329.292969 378.425781 329.945312 C 377.679688 330.199219 376.90625 330.3125 376.132812 330.3125 C 374.820312 330.3125 373.519531 329.960938 372.351562 329.292969 L 221.816406 241.125 C 219.976562 240.046875 218.691406 238.238281 218.269531 236.148438 C 217.84375 234.0625 218.339844 231.894531 219.613281 230.195312 " fill-opacity="1" fill-rule="nonzero"/><path fill="#FFFFFF" d="M 586.488281 285.84375 C 586.488281 285.84375 589.101562 287.15625 593.433594 289.8125 C 596.964844 291.96875 598.058594 296.566406 595.914062 300.082031 C 594.5 302.386719 592.046875 303.65625 589.539062 303.65625 C 588.199219 303.65625 586.851562 303.308594 585.644531 302.5625 C 582.039062 300.355469 579.851562 299.21875 579.703125 299.148438 C 576.042969 297.265625 574.582031 292.789062 576.453125 289.109375 C 578.332031 285.449219 582.828125 283.972656 586.488281 285.84375 " fill-opacity="1" fill-rule="nonzero"/><path fill="#FFFFFF" d="M 665.378906 386.773438 C 669.375 385.648438 673.492188 387.855469 674.6875 391.792969 C 676.246094 397.019531 677.574219 402.457031 678.613281 408.089844 C 679.367188 412.148438 676.683594 416.042969 672.628906 416.785156 C 672.175781 416.875 671.707031 416.917969 671.257812 416.917969 C 667.726562 416.917969 664.589844 414.410156 663.933594 410.804688 C 662.984375 405.726562 661.773438 400.808594 660.359375 396.082031 C 659.175781 392.128906 661.421875 387.972656 665.378906 386.773438 " fill-opacity="1" fill-rule="nonzero"/><path fill="#FFFFFF" d="M 653.164062 346.679688 C 656.203125 351.175781 659.117188 355.929688 661.847656 360.933594 C 663.816406 364.570312 662.472656 369.105469 658.855469 371.074219 C 657.714844 371.691406 656.492188 371.980469 655.28125 371.980469 C 652.636719 371.980469 650.074219 370.566406 648.714844 368.085938 C 646.21875 363.488281 643.5625 359.140625 640.792969 355.027344 C 638.472656 351.613281 639.378906 346.976562 642.808594 344.667969 C 646.179688 342.347656 650.859375 343.238281 653.164062 346.679688 " fill-opacity="1" fill-rule="nonzero"/><path fill="#FFFFFF" d="M 620.117188 309.523438 C 624.027344 312.9375 628.074219 316.730469 632.140625 320.886719 C 635.03125 323.832031 634.972656 328.5625 632.027344 331.449219 C 630.566406 332.863281 628.683594 333.582031 626.800781 333.582031 C 624.863281 333.582031 622.917969 332.835938 621.460938 331.335938 C 617.683594 327.46875 613.902344 323.933594 610.285156 320.757812 C 607.175781 318.042969 606.871094 313.316406 609.585938 310.222656 C 612.296875 307.097656 617.027344 306.808594 620.117188 309.523438 " fill-opacity="1" fill-rule="nonzero"/><g clip-path="url(#9b310d63d7)"><path fill="#FFFFFF" d="M 674.03125 433.898438 C 678.160156 433.976562 681.441406 437.375 681.371094 441.5 C 681.328125 444.101562 681.21875 446.710938 681.0625 449.367188 C 680.816406 453.332031 677.53125 456.367188 673.605469 456.367188 C 673.457031 456.367188 673.296875 456.367188 673.140625 456.351562 C 669.011719 456.089844 665.886719 452.546875 666.148438 448.429688 C 666.3125 446.011719 666.382812 443.601562 666.425781 441.242188 C 666.5 437.109375 669.59375 433.914062 674.03125 433.898438 " fill-opacity="1" fill-rule="nonzero"/></g><path fill="#FFFFFF" d="M 585.832031 261.171875 C 585.527344 257.070312 588.617188 253.496094 592.722656 253.175781 C 592.722656 253.175781 595.8125 252.941406 600.917969 253.101562 C 605.050781 253.230469 608.285156 256.695312 608.15625 260.804688 C 608.023438 264.917969 604.625 268.042969 600.449219 268.042969 C 599.3125 268 598.308594 267.984375 597.429688 267.984375 C 592.328125 267.984375 593.566406 268.101562 593.261719 268.101562 C 589.378906 268.101562 586.109375 265.097656 585.832031 261.171875 " fill-opacity="1" fill-rule="nonzero"/><path fill="#FFFFFF" d="M 647.8125 280.457031 C 646.511719 280.457031 645.199219 280.121094 644.015625 279.421875 C 639.917969 277 635.367188 274.945312 630.476562 273.277344 C 626.570312 271.953125 624.480469 267.707031 625.8125 263.796875 C 627.152344 259.886719 631.398438 257.816406 635.292969 259.128906 C 641.144531 261.128906 646.644531 263.621094 651.605469 266.554688 C 655.164062 268.65625 656.34375 273.234375 654.246094 276.78125 C 652.84375 279.148438 650.363281 280.457031 647.8125 280.457031 " fill-opacity="1" fill-rule="nonzero"/><path fill="#FFFFFF" d="M 676.292969 310.132812 C 675.402344 310.46875 674.492188 310.628906 673.605469 310.628906 C 670.597656 310.628906 667.769531 308.804688 666.632812 305.84375 C 665.832031 303.742188 664.921875 301.773438 663.914062 299.894531 C 661.960938 296.257812 663.332031 291.738281 666.96875 289.78125 C 670.582031 287.855469 675.136719 289.183594 677.078125 292.832031 C 678.375 295.234375 679.542969 297.792969 680.578125 300.476562 C 682.054688 304.328125 680.140625 308.660156 676.292969 310.132812 " fill-opacity="1" fill-rule="nonzero"/><path fill="#FFFFFF" d="M 601.96875 215.445312 C 597.941406 216.257812 595.433594 216.957031 595.300781 216.992188 C 594.617188 217.179688 593.933594 217.273438 593.261719 217.273438 C 590.007812 217.273438 587.011719 215.132812 586.082031 211.851562 C 584.957031 207.890625 587.25 203.757812 591.214844 202.621094 C 591.214844 202.621094 594.179688 201.777344 599.023438 200.796875 C 602.976562 199.996094 607.003906 202.597656 607.820312 206.644531 C 608.636719 210.691406 606.011719 214.628906 601.96875 215.445312 " fill-opacity="1" fill-rule="nonzero"/><path fill="#FFFFFF" d="M 644.132812 214.335938 C 643.636719 214.335938 643.140625 214.292969 642.648438 214.191406 C 638.632812 213.378906 634.183594 212.921875 629.398438 212.8125 C 625.285156 212.71875 622.015625 209.296875 622.101562 205.175781 C 622.191406 201.042969 625.019531 198.035156 629.75 197.875 C 635.394531 198.003906 640.71875 198.566406 645.59375 199.542969 C 649.632812 200.359375 652.261719 204.296875 651.441406 208.339844 C 650.730469 211.886719 647.605469 214.335938 644.132812 214.335938 " fill-opacity="1" fill-rule="nonzero"/><path fill="#FFFFFF" d="M 677.0625 233.457031 C 675.957031 234.03125 674.773438 234.304688 673.605469 234.304688 C 670.921875 234.304688 668.308594 232.84375 666.980469 230.292969 C 666.0625 228.515625 664.953125 226.84375 663.699219 225.339844 C 661.058594 222.171875 661.480469 217.460938 664.648438 214.820312 C 667.796875 212.207031 672.511719 212.609375 675.167969 215.78125 C 677.109375 218.101562 678.8125 220.660156 680.230469 223.375 C 682.140625 227.03125 680.722656 231.546875 677.0625 233.457031 " fill-opacity="1" fill-rule="nonzero"/></svg>