<svg
  xmlns="http://www.w3.org/2000/svg"
  xmlns:xlink="http://www.w3.org/1999/xlink"
  width="1200"
  zoomAndPan="magnify"
  viewBox="0 0 900 472.499986"
  height="630"
  preserveAspectRatio="xMidYMid meet"
  version="1.0"
>
  <defs>
    <clipPath id="9b310d63d7">
      <path
        d="M 666 433 L 682 433 L 682 456.265625 L 666 456.265625 Z M 666 433 "
        clip-rule="nonzero"
      />
    </clipPath>
  </defs>
  <path
    fill="#FFFFFF"
    d="M 303.488281 72.050781 C 294.910156 70.722656 284.945312 76.632812 276.628906 87.6875 C 264.851562 103.378906 260.316406 124.628906 266.078125 137.117188 C 269.25 143.988281 273.914062 148.675781 278.320312 151.925781 L 325.773438 88.664062 C 322.882812 81.847656 316.800781 74.050781 303.488281 72.050781 Z M 219.613281 230.195312 L 264.925781 169.785156 C 257.984375 164.664062 250.714844 157.289062 245.742188 146.507812 C 234.945312 123.113281 244.898438 92.640625 258.695312 74.234375 C 272.222656 56.21875 289.71875 47.28125 306.816406 49.886719 C 326.984375 52.917969 338.421875 64.398438 344.59375 76.328125 L 456.917969 142.121094 C 460.183594 144.042969 461.515625 148.121094 459.964844 151.59375 L 422.558594 236.242188 L 510.375 229.789062 C 511.707031 229.683594 512.910156 230.027344 514.152344 230.246094 L 549.796875 189.417969 C 551.941406 186.988281 555.382812 186.207031 558.359375 187.453125 C 561.335938 188.722656 563.160156 191.765625 562.867188 194.992188 L 553.808594 296.566406 C 553.53125 299.714844 551.300781 302.34375 548.246094 303.128906 C 547.621094 303.308594 546.992188 303.378906 546.367188 303.378906 C 543.933594 303.378906 541.609375 302.183594 540.195312 300.113281 L 512.582031 259.578125 C 512.574219 259.578125 512.570312 259.582031 512.5625 259.582031 L 408.882812 267.199219 L 382.960938 325.863281 C 382.097656 327.800781 380.449219 329.292969 378.425781 329.945312 C 377.679688 330.199219 376.90625 330.3125 376.132812 330.3125 C 374.820312 330.3125 373.519531 329.960938 372.351562 329.292969 L 221.816406 241.125 C 219.976562 240.046875 218.691406 238.238281 218.269531 236.148438 C 217.84375 234.0625 218.339844 231.894531 219.613281 230.195312 "
    fill-opacity="1"
    fill-rule="nonzero"
  />
</svg>
