<?xml version="1.0" standalone="no"?>
<!DOCTYPE svg PUBLIC "-//W3C//DTD SVG 20010904//EN"
 "http://www.w3.org/TR/2001/REC-SVG-20010904/DTD/svg10.dtd">
<svg version="1.0" xmlns="http://www.w3.org/2000/svg"
 width="288.000000pt" height="288.000000pt" viewBox="0 0 288.000000 288.000000"
 preserveAspectRatio="xMidYMid meet">
<metadata>
Created by potrace 1.15, written by Peter Selinger 2001-2017
</metadata><g><rect x="0" y="0" width="288" height="288" fill="#ffffff" fill-opacity="0" stroke-opacity="0" />
<g transform="translate(0.000000,288.000000) scale(0.050000,-0.050000)"
fill="#020304" stroke="none">
<path d="M560 4640 c0 -560 0 -560 560 -560 560 0 560 0 560 560 0 560 0 560
-560 560 -560 0 -560 0 -560 -560z m960 0 c0 -400 0 -400 -400 -400 -400 0
-400 0 -400 400 0 400 0 400 400 400 400 0 400 0 400 -400z"/>
<path d="M880 4640 c0 -240 0 -240 240 -240 240 0 240 0 240 240 0 240 0 240
-240 240 -240 0 -240 0 -240 -240z"/>
<path d="M1840 5120 c0 -80 0 -80 80 -80 80 0 80 0 80 -80 0 -80 0 -80 -80
-80 -80 0 -80 0 -80 -240 0 -240 0 -240 80 -240 80 0 80 0 80 80 0 80 0 80
160 80 160 0 160 0 160 -80 0 -80 0 -80 -80 -80 -80 0 -80 0 -80 -400 0 -400
0 -400 -160 -400 -160 0 -160 0 -160 -80 0 -80 0 -80 -80 -80 -80 0 -80 0 -80
80 0 80 0 80 -80 80 -80 0 -80 0 -80 80 0 80 0 80 80 80 80 0 80 0 80 80 0 80
0 80 -80 80 -80 0 -80 0 -80 -80 0 -80 0 -80 -160 -80 -160 0 -160 0 -160 80
0 80 0 80 -320 80 -320 0 -320 0 -320 -80 0 -80 0 -80 160 -80 160 0 160 0
160 -80 0 -80 0 -80 -160 -80 -160 0 -160 0 -160 -160 0 -160 0 -160 80 -160
80 0 80 0 80 -80 0 -80 0 -80 80 -80 80 0 80 0 80 80 0 80 0 80 80 80 80 0 80
0 80 80 0 80 0 80 -80 80 -80 0 -80 0 -80 80 0 80 0 80 160 80 160 0 160 0
160 -160 0 -160 0 -160 80 -160 80 0 80 0 80 -320 0 -320 0 -320 -80 -320 -80
0 -80 0 -80 -80 0 -80 0 -80 -80 -80 -80 0 -80 0 -80 80 0 80 0 80 -80 80 -80
0 -80 0 -80 80 0 80 0 80 80 80 80 0 80 0 80 80 0 80 0 80 -80 80 -80 0 -80 0
-80 -80 0 -80 0 -80 -80 -80 -80 0 -80 0 -80 80 0 80 0 80 -80 80 -80 0 -80 0
-80 -80 0 -80 0 -80 80 -80 80 0 80 0 80 -80 0 -80 0 -80 80 -80 80 0 80 0 80
-320 0 -320 0 -320 -80 -320 -80 0 -80 0 -80 -80 0 -80 0 -80 160 -80 160 0
160 0 160 160 0 160 0 160 80 160 80 0 80 0 80 80 0 80 0 80 80 80 80 0 80 0
80 -160 0 -160 0 -160 80 -160 80 0 80 0 80 -80 0 -80 0 -80 80 -80 80 0 80 0
80 80 0 80 0 80 80 80 80 0 80 0 80 -160 0 -160 0 -160 80 -160 80 0 80 0 80
80 0 80 0 80 160 80 160 0 160 0 160 80 0 80 0 80 80 80 80 0 80 0 80 80 0 80
0 80 -80 80 -80 0 -80 0 -80 160 0 160 0 160 -80 160 -80 0 -80 0 -80 160 0
160 0 160 80 160 80 0 80 0 80 -80 0 -80 0 -80 80 -80 80 0 80 0 80 -80 0 -80
0 -80 80 -80 80 0 80 0 80 80 0 80 0 80 -80 80 -80 0 -80 0 -80 160 0 160 0
160 80 160 80 0 80 0 80 -80 0 -80 0 -80 80 -80 80 0 80 0 80 -240 0 -240 0
-240 -80 -240 -80 0 -80 0 -80 -240 0 -240 0 -240 240 -240 240 0 240 0 240
-160 0 -160 0 -160 -80 -160 -80 0 -80 0 -80 80 0 80 0 80 -80 80 -80 0 -80 0
-80 -80 0 -80 0 -80 -240 -80 -240 0 -240 0 -240 80 0 80 0 80 -80 80 -80 0
-80 0 -80 -80 0 -80 0 -80 80 -80 80 0 80 0 80 -240 0 -240 0 -240 80 -240 80
0 80 0 80 -160 0 -160 0 -160 -80 -160 -80 0 -80 0 -80 80 0 80 0 80 -160 80
-160 0 -160 0 -160 160 0 160 0 160 80 160 80 0 80 0 80 80 0 80 0 80 -80 80
-80 0 -80 0 -80 -80 0 -80 0 -80 -80 -80 -80 0 -80 0 -80 -320 0 -320 0 -320
320 -320 320 0 320 0 320 80 0 80 0 80 160 80 160 0 160 0 160 80 0 80 0 80
80 80 80 0 80 0 80 -160 0 -160 0 -160 80 -160 80 0 80 0 80 80 0 80 0 80 80
80 80 0 80 0 80 80 0 80 0 80 160 80 160 0 160 0 160 80 0 80 0 80 -160 80
-160 0 -160 0 -160 -80 0 -80 0 -80 -160 -80 -160 0 -160 0 -160 80 0 80 0 80
80 80 80 0 80 0 80 80 0 80 0 80 160 80 160 0 160 0 160 80 0 80 0 80 160 80
160 0 160 0 160 -320 0 -320 0 -320 -160 -320 -160 0 -160 0 -160 -80 0 -80 0
-80 240 -80 240 0 240 0 240 240 0 240 0 240 80 240 80 0 80 0 80 80 0 80 0
80 80 80 80 0 80 0 80 -160 0 -160 0 -160 -80 -160 -80 0 -80 0 -80 -80 0 -80
0 -80 160 -80 160 0 160 0 160 160 0 160 0 160 80 160 80 0 80 0 80 80 0 80 0
80 160 80 160 0 160 0 160 80 0 80 0 80 -160 80 -160 0 -160 0 -160 80 0 80 0
80 80 80 80 0 80 0 80 80 0 80 0 80 80 80 80 0 80 0 80 -80 0 -80 0 -80 80
-80 80 0 80 0 80 80 0 80 0 80 80 80 80 0 80 0 80 80 0 80 0 80 -160 80 -160
0 -160 0 -160 240 0 240 0 240 80 240 80 0 80 0 80 240 0 240 0 240 80 240 80
0 80 0 80 160 0 160 0 160 -160 160 -160 0 -160 0 -160 80 0 80 0 80 -80 80
-80 0 -80 0 -80 80 0 80 0 80 160 80 160 0 160 0 160 -80 0 -80 0 -80 80 -80
80 0 80 0 80 80 0 80 0 80 -80 80 -80 0 -80 0 -80 80 0 80 0 80 80 80 80 0 80
0 80 160 0 160 0 160 -80 160 -80 0 -80 0 -80 -160 0 -160 0 -160 -160 -160
-160 0 -160 0 -160 -80 0 -80 0 -80 -80 -80 -80 0 -80 0 -80 160 0 160 0 160
160 160 160 0 160 0 160 80 0 80 0 80 -240 80 -240 0 -240 0 -240 -80 0 -80 0
-80 -160 -80 -160 0 -160 0 -160 80 0 80 0 80 -80 80 -80 0 -80 0 -80 240 0
240 0 240 -80 240 -80 0 -80 0 -80 80 0 80 0 80 -80 80 -80 0 -80 0 -80 -80 0
-80 0 -80 -80 -80 -80 0 -80 0 -80 -160 0 -160 0 -160 -80 -160 -80 0 -80 0
-80 80 0 80 0 80 -80 80 -80 0 -80 0 -80 -80 0 -80 0 -80 80 -80 80 0 80 0 80
-80 0 -80 0 -80 -80 -80 -80 0 -80 0 -80 -240 0 -240 0 -240 160 -240 160 0
160 0 160 -80 0 -80 0 -80 -80 -80 -80 0 -80 0 -80 -80 0 -80 0 -80 -160 -80
-160 0 -160 0 -160 80 0 80 0 80 -80 80 -80 0 -80 0 -80 -160 0 -160 0 -160
-80 -160 -80 0 -80 0 -80 160 0 160 0 160 -80 160 -80 0 -80 0 -80 -80 0 -80
0 -80 -80 -80 -80 0 -80 0 -80 160 0 160 0 160 240 160 240 0 240 0 240 240 0
240 0 240 -80 240 -80 0 -80 0 -80 160 0 160 0 160 -80 160 -80 0 -80 0 -80
80 0 80 0 80 80 80 80 0 80 0 80 80 0 80 0 80 80 80 80 0 80 0 80 -80 0 -80 0
-80 240 -80 240 0 240 0 240 80 0 80 0 80 80 80 80 0 80 0 80 80 0 80 0 80 80
80 80 0 80 0 80 80 0 80 0 80 -80 80 -80 0 -80 0 -80 80 0 80 0 80 160 80 160
0 160 0 160 -80 0 -80 0 -80 80 -80 80 0 80 0 80 160 0 160 0 160 -240 160
-240 0 -240 0 -240 -80 0 -80 0 -80 -80 -80 -80 0 -80 0 -80 80 0 80 0 80 -80
80 -80 0 -80 0 -80 -160 0 -160 0 -160 -80 -160 -80 0 -80 0 -80 80 0 80 0 80
-80 80 -80 0 -80 0 -80 80 0 80 0 80 -160 80 -160 0 -160 0 -160 -80 0 -80 0
-80 -80 -80 -80 0 -80 0 -80 80 0 80 0 80 -80 80 -80 0 -80 0 -80 -80 0 -80 0
-80 -80 -80 -80 0 -80 0 -80 80 0 80 0 80 -80 80 -80 0 -80 0 -80 -80z m960
-160 c0 -80 0 -80 -80 -80 -80 0 -80 0 -80 -80 0 -80 0 -80 -80 -80 -80 0 -80
0 -80 -80 0 -80 0 -80 -80 -80 -80 0 -80 0 -80 160 0 160 0 160 160 160 160 0
160 0 160 80 0 80 0 80 80 80 80 0 80 0 80 -80z m640 -160 c0 -80 0 -80 -80
-80 -80 0 -80 0 -80 -80 0 -80 0 -80 -80 -80 -80 0 -80 0 -80 160 0 160 0 160
160 160 160 0 160 0 160 -80z m-960 -720 c0 -160 0 -160 -80 -160 -80 0 -80 0
-80 160 0 160 0 160 80 160 80 0 80 0 80 -160z m1280 0 c0 -160 0 -160 80
-160 80 0 80 0 80 -80 0 -80 0 -80 -160 -80 -160 0 -160 0 -160 80 0 80 0 80
-80 80 -80 0 -80 0 -80 80 0 80 0 80 80 80 80 0 80 0 80 80 0 80 0 80 80 80
80 0 80 0 80 -160z m-1280 -400 c0 -80 0 -80 -80 -80 -80 0 -80 0 -80 80 0 80
0 80 80 80 80 0 80 0 80 -80z m960 0 c0 -80 0 -80 160 -80 160 0 160 0 160
-80 0 -80 0 -80 80 -80 80 0 80 0 80 80 0 80 0 80 160 80 160 0 160 0 160 -80
0 -80 0 -80 160 -80 160 0 160 0 160 -160 0 -160 0 -160 160 -160 160 0 160 0
160 -80 0 -80 0 -80 -160 -80 -160 0 -160 0 -160 -80 0 -80 0 -80 160 -80 160
0 160 0 160 -160 0 -160 0 -160 -80 -160 -80 0 -80 0 -80 -80 0 -80 0 -80 -80
-80 -80 0 -80 0 -80 -80 0 -80 0 -80 80 -80 80 0 80 0 80 -80 0 -80 0 -80
-320 -80 -320 0 -320 0 -320 80 0 80 0 80 160 80 160 0 160 0 160 160 0 160 0
160 80 160 80 0 80 0 80 160 0 160 0 160 -160 160 -160 0 -160 0 -160 160 0
160 0 160 -160 160 -160 0 -160 0 -160 -80 0 -80 0 -80 80 -80 80 0 80 0 80
-160 0 -160 0 -160 80 -160 80 0 80 0 80 -160 0 -160 0 -160 -160 -160 -160 0
-160 0 -160 -160 0 -160 0 -160 -80 -160 -80 0 -80 0 -80 -160 0 -160 0 -160
-80 -160 -80 0 -80 0 -80 -80 0 -80 0 -80 -80 -80 -80 0 -80 0 -80 -80 0 -80
0 -80 -160 -80 -160 0 -160 0 -160 -80 0 -80 0 -80 -80 -80 -80 0 -80 0 -80
-80 0 -80 0 -80 -80 -80 -80 0 -80 0 -80 -80 0 -80 0 -80 -80 -80 -80 0 -80 0
-80 80 0 80 0 80 -80 80 -80 0 -80 0 -80 160 0 160 0 160 320 160 320 0 320 0
320 80 0 80 0 80 80 80 80 0 80 0 80 160 0 160 0 160 80 160 80 0 80 0 80 -80
0 -80 0 -80 80 -80 80 0 80 0 80 160 0 160 0 160 -80 160 -80 0 -80 0 -80 240
0 240 0 240 -80 240 -80 0 -80 0 -80 160 0 160 0 160 -240 160 -240 0 -240 0
-240 80 0 80 0 80 240 80 240 0 240 0 240 -80 0 -80 0 -80 80 -80 80 0 80 0
80 240 0 240 0 240 80 240 80 0 80 0 80 -240 0 -240 0 -240 -80 -240 -80 0
-80 0 -80 -80 0 -80 0 -80 160 -80 160 0 160 0 160 80 0 80 0 80 80 80 80 0
80 0 80 80 0 80 0 80 -80 80 -80 0 -80 0 -80 240 0 240 0 240 -160 240 -160 0
-160 0 -160 80 0 80 0 80 -80 80 -80 0 -80 0 -80 80 0 80 0 80 80 80 80 0 80
0 80 -80z m-1760 -320 c0 -80 0 -80 -80 -80 -80 0 -80 0 -80 80 0 80 0 80 80
80 80 0 80 0 80 -80z m320 -80 c0 -160 0 -160 160 -160 160 0 160 0 160 -80 0
-80 0 -80 -160 -80 -160 0 -160 0 -160 -320 0 -320 0 -320 80 -320 80 0 80 0
80 -80 0 -80 0 -80 80 -80 80 0 80 0 80 -80 0 -80 0 -80 -160 -80 -160 0 -160
0 -160 160 0 160 0 160 -80 160 -80 0 -80 0 -80 320 0 320 0 320 -160 320
-160 0 -160 0 -160 80 0 80 0 80 160 80 160 0 160 0 160 160 0 160 0 160 80
160 80 0 80 0 80 -160z m-320 -560 c0 -80 0 -80 -80 -80 -80 0 -80 0 -80 80 0
80 0 80 80 80 80 0 80 0 80 -80z m0 -320 c0 -80 0 -80 -160 -80 -160 0 -160 0
-160 80 0 80 0 80 160 80 160 0 160 0 160 -80z m0 -320 c0 -80 0 -80 -80 -80
-80 0 -80 0 -80 80 0 80 0 80 80 80 80 0 80 0 80 -80z m1600 0 c0 -80 0 -80
-80 -80 -80 0 -80 0 -80 80 0 80 0 80 80 80 80 0 80 0 80 -80z m1120 -480 c0
-240 0 -240 -240 -240 -240 0 -240 0 -240 240 0 240 0 240 240 240 240 0 240
0 240 -240z"/>
<path d="M3920 3360 c0 -80 0 -80 160 -80 160 0 160 0 160 -80 0 -80 0 -80 80
-80 80 0 80 0 80 80 0 80 0 80 -80 80 -80 0 -80 0 -80 80 0 80 0 80 -160 80
-160 0 -160 0 -160 -80z"/>
<path d="M3920 2560 c0 -80 0 -80 -80 -80 -80 0 -80 0 -80 -80 0 -80 0 -80 80
-80 80 0 80 0 80 80 0 80 0 80 80 80 80 0 80 0 80 80 0 80 0 80 -80 80 -80 0
-80 0 -80 -80z"/>
<path d="M3600 2080 c0 -80 0 -80 80 -80 80 0 80 0 80 80 0 80 0 80 -80 80
-80 0 -80 0 -80 -80z"/>
<path d="M2640 1120 c0 -80 0 -80 80 -80 80 0 80 0 80 80 0 80 0 80 -80 80
-80 0 -80 0 -80 -80z"/>
<path d="M4080 1600 c0 -80 0 -80 80 -80 80 0 80 0 80 80 0 80 0 80 -80 80
-80 0 -80 0 -80 -80z"/>
<path d="M4080 4640 c0 -560 0 -560 560 -560 560 0 560 0 560 560 0 560 0 560
-560 560 -560 0 -560 0 -560 -560z m960 0 c0 -400 0 -400 -400 -400 -400 0
-400 0 -400 400 0 400 0 400 400 400 400 0 400 0 400 -400z"/>
<path d="M4400 4640 c0 -240 0 -240 240 -240 240 0 240 0 240 240 0 240 0 240
-240 240 -240 0 -240 0 -240 -240z"/>
<path d="M1840 4160 c0 -80 0 -80 80 -80 80 0 80 0 80 80 0 80 0 80 -80 80
-80 0 -80 0 -80 -80z"/>
<path d="M2800 4160 c0 -80 0 -80 80 -80 80 0 80 0 80 80 0 80 0 80 -80 80
-80 0 -80 0 -80 -80z"/>
<path d="M1840 3840 c0 -80 0 -80 80 -80 80 0 80 0 80 80 0 80 0 80 -80 80
-80 0 -80 0 -80 -80z"/>
<path d="M560 2240 c0 -80 0 -80 80 -80 80 0 80 0 80 80 0 80 0 80 -80 80 -80
0 -80 0 -80 -80z"/>
<path d="M560 1120 c0 -560 0 -560 560 -560 560 0 560 0 560 560 0 560 0 560
-560 560 -560 0 -560 0 -560 -560z m960 0 c0 -400 0 -400 -400 -400 -400 0
-400 0 -400 400 0 400 0 400 400 400 400 0 400 0 400 -400z"/>
<path d="M880 1120 c0 -240 0 -240 240 -240 240 0 240 0 240 240 0 240 0 240
-240 240 -240 0 -240 0 -240 -240z"/>
<path d="M5040 1040 c0 -160 0 -160 -80 -160 -80 0 -80 0 -80 -160 0 -160 0
-160 80 -160 80 0 80 0 80 160 0 160 0 160 80 160 80 0 80 0 80 160 0 160 0
160 -80 160 -80 0 -80 0 -80 -160z"/>
<path d="M4560 800 c0 -80 0 -80 80 -80 80 0 80 0 80 80 0 80 0 80 -80 80 -80
0 -80 0 -80 -80z"/>
</g>
</g></svg>
