<?xml version="1.0" standalone="no"?>
<!DOCTYPE svg PUBLIC "-//W3C//DTD SVG 20010904//EN"
 "http://www.w3.org/TR/2001/REC-SVG-20010904/DTD/svg10.dtd">
<svg version="1.0" xmlns="http://www.w3.org/2000/svg"
 width="248.000000pt" height="248.000000pt" viewBox="0 0 248.000000 248.000000"
 preserveAspectRatio="xMidYMid meet">
<metadata>
Created by potrace 1.15, written by Peter Selinger 2001-2017
</metadata><g><rect x="0" y="0" width="248" height="248" fill="#ffffff" fill-opacity="0" stroke-opacity="0" />
<g transform="translate(0.000000,248.000000) scale(0.050000,-0.050000)"
fill="#020304" stroke="none">
<path d="M480 3920 c0 -560 0 -560 560 -560 560 0 560 0 560 560 0 560 0 560
-560 560 -560 0 -560 0 -560 -560z m960 0 c0 -400 0 -400 -400 -400 -400 0
-400 0 -400 400 0 400 0 400 400 400 400 0 400 0 400 -400z"/>
<path d="M800 3920 c0 -240 0 -240 240 -240 240 0 240 0 240 240 0 240 0 240
-240 240 -240 0 -240 0 -240 -240z"/>
<path d="M2240 4400 c0 -80 0 -80 -80 -80 -80 0 -80 0 -80 -80 0 -80 0 -80
-80 -80 -80 0 -80 0 -80 80 0 80 0 80 -80 80 -80 0 -80 0 -80 -80 0 -80 0 -80
80 -80 80 0 80 0 80 -80 0 -80 0 -80 -80 -80 -80 0 -80 0 -80 -80 0 -80 0 -80
80 -80 80 0 80 0 80 80 0 80 0 80 80 80 80 0 80 0 80 -80 0 -80 0 -80 80 -80
80 0 80 0 80 -80 0 -80 0 -80 -240 -80 -240 0 -240 0 -240 -160 0 -160 0 -160
80 -160 80 0 80 0 80 -80 0 -80 0 -80 -240 -80 -240 0 -240 0 -240 -80 0 -80
0 -80 80 -80 80 0 80 0 80 -80 0 -80 0 -80 -80 -80 -80 0 -80 0 -80 -80 0 -80
0 -80 240 -80 240 0 240 0 240 -160 0 -160 0 -160 -80 -160 -80 0 -80 0 -80
80 0 80 0 80 -160 80 -160 0 -160 0 -160 -80 0 -80 0 -80 80 -80 80 0 80 0 80
-80 0 -80 0 -80 -160 -80 -160 0 -160 0 -160 80 0 80 0 80 -160 80 -160 0
-160 0 -160 -80 0 -80 0 -80 -80 -80 -80 0 -80 0 -80 160 0 160 0 160 160 160
160 0 160 0 160 160 0 160 0 160 80 160 80 0 80 0 80 160 0 160 0 160 -400
160 -400 0 -400 0 -400 -80 0 -80 0 -80 80 -80 80 0 80 0 80 -80 0 -80 0 -80
80 -80 80 0 80 0 80 -160 0 -160 0 -160 -80 -160 -80 0 -80 0 -80 -80 0 -80 0
-80 -80 -80 -80 0 -80 0 -80 -320 0 -320 0 -320 80 -320 80 0 80 0 80 240 0
240 0 240 80 240 80 0 80 0 80 -240 0 -240 0 -240 400 -240 400 0 400 0 400
80 0 80 0 80 -320 80 -320 0 -320 0 -320 80 0 80 0 80 80 80 80 0 80 0 80 80
0 80 0 80 80 80 80 0 80 0 80 -80 0 -80 0 -80 240 -80 240 0 240 0 240 -80 0
-80 0 -80 80 -80 80 0 80 0 80 -80 0 -80 0 -80 -80 -80 -80 0 -80 0 -80 -160
0 -160 0 -160 80 -160 80 0 80 0 80 160 0 160 0 160 80 160 80 0 80 0 80 -160
0 -160 0 -160 80 -160 80 0 80 0 80 80 0 80 0 80 80 80 80 0 80 0 80 -80 0
-80 0 -80 80 -80 80 0 80 0 80 80 0 80 0 80 80 80 80 0 80 0 80 80 0 80 0 80
80 80 80 0 80 0 80 -80 0 -80 0 -80 80 -80 80 0 80 0 80 -160 0 -160 0 -160
-80 -160 -80 0 -80 0 -80 80 0 80 0 80 -80 80 -80 0 -80 0 -80 -80 0 -80 0
-80 -320 -80 -320 0 -320 0 -320 -80 0 -80 0 -80 -80 -80 -80 0 -80 0 -80 80
0 80 0 80 -80 80 -80 0 -80 0 -80 -400 0 -400 0 -400 160 -400 160 0 160 0
160 80 0 80 0 80 80 80 80 0 80 0 80 80 0 80 0 80 -80 80 -80 0 -80 0 -80 80
0 80 0 80 160 80 160 0 160 0 160 80 0 80 0 80 240 80 240 0 240 0 240 -160 0
-160 0 -160 80 -160 80 0 80 0 80 -80 0 -80 0 -80 160 -80 160 0 160 0 160
-80 0 -80 0 -80 560 -80 560 0 560 0 560 240 0 240 0 240 -80 240 -80 0 -80 0
-80 -160 0 -160 0 -160 -160 -160 -160 0 -160 0 -160 80 0 80 0 80 80 80 80 0
80 0 80 240 0 240 0 240 -80 240 -80 0 -80 0 -80 80 0 80 0 80 160 80 160 0
160 0 160 -160 0 -160 0 -160 80 -160 80 0 80 0 80 240 0 240 0 240 -240 240
-240 0 -240 0 -240 80 0 80 0 80 80 80 80 0 80 0 80 80 0 80 0 80 -80 80 -80
0 -80 0 -80 -80 0 -80 0 -80 -80 -80 -80 0 -80 0 -80 160 0 160 0 160 80 160
80 0 80 0 80 160 0 160 0 160 80 160 80 0 80 0 80 -160 0 -160 0 -160 80 -160
80 0 80 0 80 -80 0 -80 0 -80 80 -80 80 0 80 0 80 160 0 160 0 160 -80 160
-80 0 -80 0 -80 80 0 80 0 80 80 80 80 0 80 0 80 240 0 240 0 240 -80 240 -80
0 -80 0 -80 160 0 160 0 160 -80 160 -80 0 -80 0 -80 -240 0 -240 0 -240 80
-240 80 0 80 0 80 -80 0 -80 0 -80 -160 -80 -160 0 -160 0 -160 -80 0 -80 0
-80 -80 -80 -80 0 -80 0 -80 160 0 160 0 160 80 160 80 0 80 0 80 80 0 80 0
80 -80 80 -80 0 -80 0 -80 -80 0 -80 0 -80 -80 -80 -80 0 -80 0 -80 240 0 240
0 240 -80 240 -80 0 -80 0 -80 -160 0 -160 0 -160 -160 -160 -160 0 -160 0
-160 80 0 80 0 80 80 80 80 0 80 0 80 80 0 80 0 80 -80 80 -80 0 -80 0 -80
-80 0 -80 0 -80 -80 -80 -80 0 -80 0 -80 -80 0 -80 0 -80 -80 -80 -80 0 -80 0
-80 160 0 160 0 160 80 160 80 0 80 0 80 80 0 80 0 80 80 80 80 0 80 0 80 240
0 240 0 240 -80 240 -80 0 -80 0 -80 -80 0 -80 0 -80 -160 -80 -160 0 -160 0
-160 160 0 160 0 160 -80 160 -80 0 -80 0 -80 80 0 80 0 80 -160 80 -160 0
-160 0 -160 80 0 80 0 80 80 80 80 0 80 0 80 80 0 80 0 80 -80 80 -80 0 -80 0
-80 -80z m160 -480 c0 -80 0 -80 80 -80 80 0 80 0 80 -80 0 -80 0 -80 -80 -80
-80 0 -80 0 -80 -160 0 -160 0 -160 80 -160 80 0 80 0 80 80 0 80 0 80 80 80
80 0 80 0 80 -80 0 -80 0 -80 80 -80 80 0 80 0 80 80 0 80 0 80 80 80 80 0 80
0 80 -80 0 -80 0 -80 -80 -80 -80 0 -80 0 -80 -80 0 -80 0 -80 -240 -80 -240
0 -240 0 -240 80 0 80 0 80 -80 80 -80 0 -80 0 -80 160 0 160 0 160 80 160 80
0 80 0 80 80 0 80 0 80 -80 80 -80 0 -80 0 -80 80 0 80 0 80 80 80 80 0 80 0
80 -80z m-320 -480 c0 -80 0 -80 -80 -80 -80 0 -80 0 -80 80 0 80 0 80 80 80
80 0 80 0 80 -80z m160 -400 c0 -160 0 -160 80 -160 80 0 80 0 80 -80 0 -80 0
-80 -80 -80 -80 0 -80 0 -80 80 0 80 0 80 -80 80 -80 0 -80 0 -80 -80 0 -80 0
-80 -80 -80 -80 0 -80 0 -80 80 0 80 0 80 -80 80 -80 0 -80 0 -80 80 0 80 0
80 80 80 80 0 80 0 80 80 0 80 0 80 160 80 160 0 160 0 160 -160z m-1120 -80
c0 -80 0 -80 -160 -80 -160 0 -160 0 -160 80 0 80 0 80 160 80 160 0 160 0
160 -80z m1600 0 c0 -80 0 -80 80 -80 80 0 80 0 80 -80 0 -80 0 -80 160 -80
160 0 160 0 160 -80 0 -80 0 -80 -160 -80 -160 0 -160 0 -160 80 0 80 0 80
-80 80 -80 0 -80 0 -80 -80 0 -80 0 -80 -80 -80 -80 0 -80 0 -80 80 0 80 0 80
80 80 80 0 80 0 80 80 0 80 0 80 -80 80 -80 0 -80 0 -80 80 0 80 0 80 80 80
80 0 80 0 80 -80z m960 -320 c0 -80 0 -80 -160 -80 -160 0 -160 0 -160 80 0
80 0 80 160 80 160 0 160 0 160 -80z m-1280 -160 c0 -80 0 -80 80 -80 80 0 80
0 80 -80 0 -80 0 -80 80 -80 80 0 80 0 80 80 0 80 0 80 160 80 160 0 160 0
160 -80 0 -80 0 -80 -80 -80 -80 0 -80 0 -80 -160 0 -160 0 -160 -160 -160
-160 0 -160 0 -160 80 0 80 0 80 -80 80 -80 0 -80 0 -80 -160 0 -160 0 -160
80 -160 80 0 80 0 80 -80 0 -80 0 -80 -80 -80 -80 0 -80 0 -80 80 0 80 0 80
-80 80 -80 0 -80 0 -80 80 0 80 0 80 -160 80 -160 0 -160 0 -160 80 0 80 0 80
80 80 80 0 80 0 80 240 0 240 0 240 160 240 160 0 160 0 160 -80z m1120 -160
c0 -80 0 -80 -160 -80 -160 0 -160 0 -160 80 0 80 0 80 160 80 160 0 160 0
160 -80z m320 0 c0 -80 0 -80 -80 -80 -80 0 -80 0 -80 80 0 80 0 80 80 80 80
0 80 0 80 -80z m-640 -320 c0 -80 0 -80 -80 -80 -80 0 -80 0 -80 80 0 80 0 80
80 80 80 0 80 0 80 -80z m320 0 c0 -80 0 -80 -80 -80 -80 0 -80 0 -80 80 0 80
0 80 80 80 80 0 80 0 80 -80z m160 -480 c0 -240 0 -240 -240 -240 -240 0 -240
0 -240 240 0 240 0 240 240 240 240 0 240 0 240 -240z m320 0 c0 -80 0 -80
-80 -80 -80 0 -80 0 -80 80 0 80 0 80 80 80 80 0 80 0 80 -80z m0 -320 c0 -80
0 -80 -80 -80 -80 0 -80 0 -80 80 0 80 0 80 80 80 80 0 80 0 80 -80z m-320
-160 c0 -80 0 -80 80 -80 80 0 80 0 80 -80 0 -80 0 -80 -400 -80 -400 0 -400
0 -400 80 0 80 0 80 240 80 240 0 240 0 240 80 0 80 0 80 80 80 80 0 80 0 80
-80z m-1600 -320 c0 -80 0 -80 -80 -80 -80 0 -80 0 -80 80 0 80 0 80 80 80 80
0 80 0 80 -80z"/>
<path d="M2240 2320 c0 -80 0 -80 80 -80 80 0 80 0 80 80 0 80 0 80 -80 80
-80 0 -80 0 -80 -80z"/>
<path d="M3360 1520 c0 -80 0 -80 80 -80 80 0 80 0 80 80 0 80 0 80 -80 80
-80 0 -80 0 -80 -80z"/>
<path d="M2560 4400 c0 -80 0 -80 80 -80 80 0 80 0 80 -80 0 -80 0 -80 80 -80
80 0 80 0 80 -80 0 -80 0 -80 160 -80 160 0 160 0 160 80 0 80 0 80 -80 80
-80 0 -80 0 -80 80 0 80 0 80 80 80 80 0 80 0 80 80 0 80 0 80 -80 80 -80 0
-80 0 -80 -80 0 -80 0 -80 -160 -80 -160 0 -160 0 -160 80 0 80 0 80 -80 80
-80 0 -80 0 -80 -80z"/>
<path d="M3360 3920 c0 -560 0 -560 560 -560 560 0 560 0 560 560 0 560 0 560
-560 560 -560 0 -560 0 -560 -560z m960 0 c0 -400 0 -400 -400 -400 -400 0
-400 0 -400 400 0 400 0 400 400 400 400 0 400 0 400 -400z"/>
<path d="M3680 3920 c0 -240 0 -240 240 -240 240 0 240 0 240 240 0 240 0 240
-240 240 -240 0 -240 0 -240 -240z"/>
<path d="M3840 3120 c0 -80 0 -80 80 -80 80 0 80 0 80 80 0 80 0 80 -80 80
-80 0 -80 0 -80 -80z"/>
<path d="M480 1040 c0 -560 0 -560 560 -560 560 0 560 0 560 560 0 560 0 560
-560 560 -560 0 -560 0 -560 -560z m960 0 c0 -400 0 -400 -400 -400 -400 0
-400 0 -400 400 0 400 0 400 400 400 400 0 400 0 400 -400z"/>
<path d="M800 1040 c0 -240 0 -240 240 -240 240 0 240 0 240 240 0 240 0 240
-240 240 -240 0 -240 0 -240 -240z"/>
<path d="M2560 880 c0 -80 0 -80 -80 -80 -80 0 -80 0 -80 -160 0 -160 0 -160
240 -160 240 0 240 0 240 80 0 80 0 80 -160 80 -160 0 -160 0 -160 80 0 80 0
80 80 80 80 0 80 0 80 80 0 80 0 80 -80 80 -80 0 -80 0 -80 -80z"/>
</g>
</g></svg>
