<?xml version="1.0" encoding="UTF-8"?>
<svg id="_レイヤー_2" data-name="レイヤー_2" xmlns="http://www.w3.org/2000/svg" viewBox="0 0 447.63 453.95">
  <defs>
    <style>
      .cls-1 {
        fill: #dddcda;
      }
    </style>
  </defs>
  <g id="_レイヤー_1-2" data-name="レイヤー_1">
    <g>
      <rect class="cls-1" x="21.68" y="200.96" width=".65" height="101.75"/>
      <rect class="cls-1" x="21.68" y="310.63" width=".65" height="24.91"/>
      <polygon class="cls-1" points="0 360.88 17.43 360.24 22.2 343.46 28.2 359.84 45.63 359.19 31.91 369.96 37.91 386.34 23.43 376.62 9.71 387.38 14.48 370.61 0 360.88"/>
      <rect class="cls-1" x="81.23" y="263.24" width="1.29" height="148.15"/>
      <polygon class="cls-1" points="91.94 434.62 84.14 431.89 79.13 438.47 79.31 430.21 71.51 427.48 79.43 425.1 79.61 416.83 84.32 423.63 92.24 421.24 87.23 427.82 91.94 434.62"/>
      <path class="cls-1" d="M159.14,407.1s-3.31,4.34-6.29,4.05c0,0,9.6,4.05,15.23-5.78l.5-5.91c-2.64-.61-5.27-1.28-7.88-1.99,1.08,3,1.21,6.5-1.56,9.64Z"/>
      <path class="cls-1" d="M149.21,397.84s1.99,4.05-1.66,4.05c0,0,2.98,2.31,4.63-3.18,0,0,.39-1.37-.85-4.01-1.35-.43-2.69-.87-4.03-1.33,1.94,2.04,2.94,3.73,1.9,4.47Z"/>
      <path class="cls-1" d="M173.05,400.44c6.39,4.91,16.83,15.82,8.93,30.67,0,0-.66,10.7-19.2,8.97,0,0-8.94-6.07-5.3-11.57l2.98-4.63s-10.59,2.6-6.62,10.7c0,0-2.65,19.38,31.12,16.49,0,0,17.87-8.39,19.86-15.62,0,0,4.3,8.68-6.95,18.51,0,0,7.61-1.16,16.88-15.33,0,0,3.31-12.44.99-17.06-2.32-4.63-.66-1.45-.66-1.45,0,0,15.9-6.73,24.13-15.61-22.33,1.86-44.67.46-66.17-4.06Z"/>
      <path class="cls-1" d="M342.4,198.79s.02,0,.02-.01c.19-.56-.02.01-.02.01Z"/>
      <path class="cls-1" d="M446.29,140.85c-1.1-.54-2.37-.32-2.83.49l-70.15,122.07-.43-.22c-1.53-.77-3.88.79-4.29,2.36l-.45,5.35c-.12.45-.08.91.06,1.33-3.29.59-6.83,3.26-9.1,7.25-2.06,3.62-2.57,7.44-1.65,10.25-.07.05-.15.1-.21.15l-4.59,2.75c-.93.82-.99,2.6-.09,3.73-1.53-.1-3.13.96-3.35,2.14l.09,5.07c-.08.42,0,.86.21,1.27l-7.81,13.58c4.48-1.99,8.91-4.16,13.28-6.54l1.97-3.6c.33-.09.64-.24.89-.46l4.62-2.72c.95-.82,1.02-2.66.08-3.78,1.55.13,3.19-.95,3.4-2.16l-.13-5.07c.04-.22.03-.44-.01-.66,2.86-.99,5.76-3.45,7.71-6.88,2.24-3.94,2.65-8.12,1.38-10.97l.36-.66c.13-.09.26-.19.37-.3l4.58-3.29c1.2-1.18,1.31-3.85-.22-4.62l-.18-.09,67.69-123.34c.45-.82-.08-1.91-1.19-2.45Z"/>
      <path class="cls-1" d="M170.93,28.89s39.06-6.99,44.69-12.15c0,0,2.49.69,9.9,5.12,39.65-12.29,81.53-10.79,118.15,2.78C276.67-10.33,190.16-8.88,120.15,34.14c17.65.16,36.05-1.07,50.78-5.25Z"/>
      <path class="cls-1" d="M263.42,315.11l-.13,2.38s.03.08.05.13l.08-1.47,8.31,16.82c.08.16.19.3.3.43.14,0,.28,0,.43,0l-9.04-18.29Z"/>
      <path class="cls-1" d="M342.4,197.76s.02,0,.02-.01c.19-.56-.02.01-.02.01Z"/>
      <path class="cls-1" d="M141.85,78.98c-.12-.02-.24-.03-.36-.05-2.28,2.65-4.45,5.35-6.53,8.11,2.21-2.74,4.49-5.44,6.89-8.06Z"/>
      <path class="cls-1" d="M342.4,198.79s.02,0,.02-.01c.19-.56-.02.01-.02.01Z"/>
      <path class="cls-1" d="M342.4,197.76s.02,0,.02-.01c.19-.56-.02.01-.02.01Z"/>
      <path class="cls-1" d="M141.99,267.28h-11.56c3.59,4.98,7.46,9.68,11.56,14.14v-14.14Z"/>
      <path class="cls-1" d="M278.13,312.45c1.99,0,3.67-1.59,5.03-4.77,1.36-3.18,2.04-7.26,2.04-12.26,0-4.28-.69-7.9-2.07-10.87-1.38-2.96-2.96-4.45-4.73-4.45-1.87,0-3.3,1.37-4.28,4.11-.99,2.74-1.48,6.69-1.48,11.83,0,6.27.41,10.57,1.23,12.9.82,2.33,2.24,3.5,4.26,3.5Z"/>
      <path class="cls-1" d="M198.7,311.13c6.22-9.24,9.32-17.44,9.32-24.61,0-6.25-1.3-11.06-3.89-14.43-2.6-3.37-6.27-5.05-11.02-5.05-5.27,0-10.15,2.57-14.64,7.71-4.37,4.99-9.34,13.68-14.91,26.06,9.24,6.88,19.21,12.76,29.73,17.58,2.17-2.72,3.99-5.15,5.41-7.27Z"/>
      <path class="cls-1" d="M377.01,49.84c-.77-1.98-3.46-2.13-4.54-.31-5.24,8.84-21.64,23.05-23.31,24.49-.09.09-.17.18-.26.27-6.67,8.38-21.54,12.55-31.81,14.5-2.38.45-3.88-2.32-2.33-4.18.74-.88-.5-.63-.5-.63,0-5.5-20.85-18.8-20.85-18.8,0-1.58-7.49,2.61-8.79,3.36-.12.09-.24.18-.37.27-6.86,6.13-10.99,9-13.21,10.33-1.15.69-2.63.35-3.38-.75-.02-.02-.03-.05-.05-.07-.85-1.24-.45-2.94.88-3.66,3.87-2.1,7.72-5.15,10.06-7.15,1.21-1.03,1.16-2.92-.09-3.9-27.76-21.86-43.96-32.75-52.94-38.12-4.45-2.66-7.13-3.98-8.55-4.6-.73-.32-1.57-.28-2.24.15-7.79,4.95-42.03,11.16-43.73,11.47-.05.01-.09.02-.14.03-14.72,4.17-33.09,5.4-50.71,5.23-21.82-.2-42.48-2.52-53.6-4.01-2.52-.34-3.92,2.82-1.98,4.45,6.2,5.23,15.5,12.55,21.75,15.09.56.23,1.18.22,1.74.02l5.87-2.05c1.59-.56,3.28.57,3.37,2.26l.02.29.39,7.04c.04.76.42,1.47,1.04,1.91,2.96,2.12,13.05,8.17,35.36,11.75.85.14,1.72.23,2.58.28,1.55.09,4.46.29,7.81.73-.07.08-.14.15,0,0,7.4.94,17.84,1.45,23.78.78l14.9-9.83s-.48,2.11-1.15,5.99c-.44,2.56-.97,5.89-1.5,9.92l1.94-.82,17.92-7.57s-.79,2.38-2.6,5.62c-1.93,3.45-5.04,7.87-9.65,11.45,0,0,.16.54.45,1.48-.07.38-.08.77.04,1.16,1.92,6.39,8.93,29.99,9.47,35.95,0,.05-.01.12-.03.16,0,0-16.22,27.19-29.13,29.79,0,0-58.59,18.51-58.59,22.56,0,0,1.07.43,2.86,1.1,7.55,2.81,27.15,7.01,37.2,7.58,0,0,25.49,2.02,34.76-.87,0,0-1.83,1.79-4.9,4.83l-55.86,60.28c-.69.82-.76,1.99-.2,2.91l.08.13c1.44,2.34,2.96,4.62,4.51,6.86h25.7l-11.91,17.12c6.29,6.74,13.14,12.88,20.46,18.37v-32.15l8.56,8.78c3.29-4.58,6.73-7.9,10.31-9.98,3.58-2.07,7.72-3.11,12.4-3.11,7.6,0,13.95,2.12,19.03,6.36,5.08,4.24,7.62,9.67,7.62,16.28,0,7.21-7.29,18.64-21.86,34.29,20.39,8.45,42.6,13.06,65.27,13.52,1.59.03,2.85-1.39,2.61-2.96-.58-3.8-1.66-7.97-3.48-12.43-.14-.34-.21-.72-.19-1.09l.02-.35s-.03-.08-.05-.13l.13-2.38,9.04,18.29c-.14,0-.28,0-.43,0,.49.63,1.25,1.02,2.06.99,10.29-.33,20.63-1.53,30.9-3.6,1.25-.25,2.09-1.41,2.03-2.68-.71-14.14,4.18-28.78,10.89-32.9,10.69-6.57,10.37-17.8,10.19-20.04-.02-.26-.12-.5-.29-.7-7.57-9.3-16.13-15.14-17.62-16.13-.15-.12-.29-.24-.43-.37-19.07-20.65.14-36.04,4.3-38.99.47-.34,1.06-.48,1.64-.43,18.45,1.58,26.4-1.47,29.19-3.06.82-.47,1.28-1.37,1.22-2.31-.31-5.5-2.36-8.34-3.74-9.65-.74-.7-1-1.77-.66-2.73.41-1.13.61-1.72.71-2,0,0-.02,0-.02.01,0,0,.22-.57.02-.01,3.63-1.34,5.16-3.16,5.8-4.46.36-.73-.06-1.63-.86-1.79-4.31-.85-2.64-3.28-2.64-3.28,7.61-6.65,4.3-5.5,4.3-5.5.25-1.99-2.21-3.14-3.38-3.56-.47-.17-.88-.5-1.18-.91-2.85-3.88,1.58-5.94,1.58-5.94,6.29-2.31,7.28-4.63,7.28-4.63,1.66-1.74-1.66-2.89-1.66-2.89-11.06-5.17-16.73-13.83-18.7-17.44-.4-.74.01-1.65.84-1.82.04,0,.07-.01.11-.02,1.44-.3,1.24-2.42-.23-2.47-.54-.02-1.04-.04-1.49-.07-1.19-.07-2.17-.98-2.34-2.16-1.47-10.48.3-8.42.3-8.42,9.42-5.63,18.29-12.73,22.14-15.93,1.11-.92,1.23-2.58.27-3.65-1.77-1.97.27-4.99,2.76-4.08l3.3,1.21c.87.32,1.84.15,2.54-.46,7.08-6.16,12.91-22.48,12.91-22.48,7.69-18.88,5.55-31.48,2.94-38.18ZM264.95,313.56h-10.4c2.24-2.48,3.88-5.24,4.9-8.28,1.02-3.04,1.53-6.78,1.53-11.23,0-4.77-.46-8.3-1.37-10.61s-2.3-3.46-4.17-3.46-3.48,1.68-4.99,5.03c-1.51,3.36-2.26,7.39-2.26,12.09,0,2.65.13,5.35.39,8.1.26,2.75.67,5.54,1.22,8.36h-9.12l4.75-2.54v-29.61l-4.75-2.38h6.99l.3,8.96c.77-3.03,1.83-5.37,3.18-7.02s2.87-2.48,4.56-2.48c2.62,0,4.82,1.51,6.62,4.53,1.79,3.02,2.69,6.87,2.69,11.55,0,3.3-.52,6.3-1.57,8.99-1.05,2.69-2.69,5.2-4.94,7.53l6.43,2.48ZM294.31,313.56h-6.99l-.37-9.82c-.85,3.49-1.91,6.1-3.2,7.82-1.28,1.72-2.8,2.57-4.54,2.57-2.92,0-5.25-1.59-7.01-4.77-1.76-3.18-2.64-7.49-2.64-12.93s.95-9.56,2.84-12.91c1.89-3.36,4.21-5.04,6.95-5.04,1.4,0,2.63.57,3.7,1.72,1.07,1.14,2.01,2.87,2.8,5.18l-1.05-20.17h9.5l-5.05,2.48v43.21l5.05,2.67ZM342.42,197.75s-.02,0-.02.01c0,0,.22-.57.02-.01Z"/>
      <path class="cls-1" d="M442.89,181.24c-3.13,52.68-34.5,103.75-88.03,133.1-.19.11-.39.2-.58.3-4.37,2.38-8.8,4.55-13.28,6.54-12.03,5.35-24.4,9.36-36.89,12.04-11.53,2.47-23.16,3.83-34.72,4.1-1.7.04-3.4.05-5.1.05-13.39-.05-26.64-1.57-39.47-4.46v22.96h-66.04c13.99-14.12,24.65-25.57,31.97-34.35-26.09-11.86-48.88-30.16-65.4-54.24h-9.01l-14.15,37.93c3-1,6.01-1.75,9.05-2.27,3.03-.52,5.87-.78,8.5-.78,9.94,0,18.19,2.26,24.74,6.78,6.54,4.52,9.82,10.28,9.82,17.29,0,8.44-3.45,15.63-10.36,21.56-6.91,5.93-14.97,8.9-24.19,8.9-4.98,0-9.62-1.17-13.93-3.52-4.32-2.35-7.75-5.61-10.31-9.8l-7.9,8.72v-33.93c5.48,13.74,10.6,23.15,15.36,28.22,4.75,5.08,10.42,7.62,17,7.62,5.99,0,11.13-2.55,15.41-7.65,4.28-5.1,6.42-11.47,6.42-19.12,0-6.53-2.19-11.92-6.58-16.16-4.39-4.24-9.84-6.36-16.34-6.36-3.66,0-7.4.51-11.24,1.52-3.84,1.02-7.73,2.54-11.68,4.57l4.5-41.22-12.83-4.66h36.17c-.86-1.31-1.71-2.62-2.54-3.96-.34-.56-.67-1.12-1-1.68-33.11-55.4-25.15-122.75,14.74-172.27,2.09-2.75,4.26-5.46,6.53-8.11-5.21-.67-9.05-1.31-9.05-1.31-28.47-4.34-37.74-12.73-37.74-12.73l-.46-8.2C10.4,123.65-8.34,237.93,54.18,320.39c24.51,32.32,58.07,55.22,95.56,68,1.34.46,2.68.9,4.03,1.33,3.1.99,6.22,1.91,9.36,2.76,2.61.71,5.24,1.4,7.89,2.01,1.48.34,2.97.67,4.47.99,21.5,4.52,43.84,5.9,66.17,4.04,37.68-3.13,75.31-15.52,108.76-37.74,65.2-43.3,97.92-112.96,92.48-180.53Z"/>
      <path class="cls-1" d="M175.89,343.8c-4.54,4.18-8.01,7.39-10.42,9.62h48.37l10.18-20.69c-9.52-2.19-18.81-5.12-27.75-8.81-5.78,6.04-12.57,12.66-20.39,19.88Z"/>
    </g>
  </g>
</svg>